<svg width="847" height="248" viewBox="0 0 847 248" fill="none" xmlns="http://www.w3.org/2000/svg">
<path d="M298.323 129.372L296.947 129.544V74.1602H309.847V198H297.979L297.119 182.004C294.482 186.82 290.526 190.891 285.251 194.216C280.091 197.541 273.67 199.204 265.987 199.204C258.075 199.204 251.138 197.427 245.175 193.872C239.327 190.203 234.74 185.043 231.415 178.392C228.204 171.741 226.599 163.944 226.599 155C226.599 146.056 228.204 138.316 231.415 131.78C234.74 125.129 239.327 119.969 245.175 116.3C251.138 112.631 258.075 110.796 265.987 110.796C274.128 110.796 280.894 112.573 286.283 116.128C291.672 119.683 295.686 124.097 298.323 129.372ZM240.531 155C240.531 164.861 243.054 172.716 248.099 178.564C253.144 184.297 260.024 187.164 268.739 187.164C274.128 187.164 278.944 185.903 283.187 183.38C287.43 180.857 290.755 177.188 293.163 172.372C295.686 167.556 296.947 161.765 296.947 155C296.947 148.235 295.686 142.501 293.163 137.8C290.755 132.984 287.43 129.315 283.187 126.792C278.944 124.155 274.128 122.836 268.739 122.836C260.139 122.836 253.259 125.76 248.099 131.608C243.054 137.341 240.531 145.139 240.531 155Z" fill="#BE9DF4"/>
<path d="M324.2 112H336.068L336.756 124.556C339.049 121.46 341.801 118.823 345.012 116.644C348.337 114.465 351.949 112.975 355.848 112.172C359.861 111.255 364.104 111.197 368.576 112V124.9C363.76 123.983 359.402 123.983 355.504 124.9C351.72 125.817 348.452 127.537 345.7 130.06C342.948 132.583 340.826 135.793 339.336 139.692C337.845 143.476 337.1 147.891 337.1 152.936V198H324.2V112Z" fill="#BE9DF4"/>
<path d="M406.82 199.204C398.793 199.204 391.627 197.255 385.32 193.356C379.128 189.457 374.255 184.125 370.7 177.36C367.145 170.595 365.368 162.855 365.368 154.14C365.368 145.769 367.145 138.316 370.7 131.78C374.255 125.244 379.128 120.141 385.32 116.472C391.512 112.688 398.564 110.796 406.476 110.796C414.273 110.796 421.211 112.516 427.288 115.956C433.48 119.396 438.296 124.155 441.736 130.232C445.176 136.309 446.781 143.247 446.552 151.044C446.552 152.305 446.495 153.624 446.38 155C446.265 156.376 446.151 157.867 446.036 159.472H379.472C379.701 164.861 381.02 169.62 383.428 173.748C385.836 177.876 388.989 181.144 392.888 183.552C396.901 185.845 401.431 186.992 406.476 186.992C413.127 186.992 418.745 185.731 423.332 183.208C428.033 180.685 431.416 177.073 433.48 172.372L444.66 176.844C441.22 184.068 436.232 189.629 429.696 193.528C423.16 197.312 415.535 199.204 406.82 199.204ZM432.448 148.292C432.563 143.361 431.473 139.004 429.18 135.22C427.001 131.436 423.905 128.455 419.892 126.276C415.879 124.097 411.235 123.008 405.96 123.008C401.373 123.008 397.188 124.097 393.404 126.276C389.62 128.455 386.467 131.493 383.944 135.392C381.536 139.176 380.103 143.476 379.644 148.292H432.448Z" fill="#BE9DF4"/>
<path d="M506.142 198L505.11 182.52C502.702 187.795 499.147 191.923 494.446 194.904C489.745 197.771 483.782 199.204 476.558 199.204C470.366 199.204 465.091 198.229 460.734 196.28C456.377 194.331 452.994 191.579 450.586 188.024C448.293 184.355 447.146 180.055 447.146 175.124C447.146 167.9 449.841 161.995 455.23 157.408C460.619 152.707 468.417 149.84 478.622 148.808L505.11 145.884V139.004C505.11 134.188 503.333 130.347 499.778 127.48C496.223 124.499 491.407 123.008 485.33 123.008C479.367 123.008 474.379 124.384 470.366 127.136C466.467 129.888 463.773 133.844 462.282 139.004L450.586 134.876C452.879 127.308 457.065 121.403 463.142 117.16C469.334 112.917 476.845 110.796 485.674 110.796C495.879 110.796 503.791 113.433 509.41 118.708C515.143 123.868 518.01 130.92 518.01 139.864V198H506.142ZM505.11 156.892L478.45 159.988C472.717 160.676 468.359 162.281 465.378 164.804C462.397 167.212 460.906 170.423 460.906 174.436C460.906 178.449 462.339 181.66 465.206 184.068C468.187 186.476 472.43 187.68 477.934 187.68C484.241 187.68 489.401 186.419 493.414 183.896C497.427 181.373 500.351 177.991 502.186 173.748C504.135 169.391 505.11 164.689 505.11 159.644V156.892Z" fill="#BE9DF4"/>
<path d="M527.697 112H539.565L540.425 124.384C542.948 120.256 546.33 116.988 550.573 114.58C554.93 112.057 560.09 110.796 566.053 110.796C572.13 110.796 577.634 112.287 582.565 115.268C587.61 118.135 591.509 122.435 594.261 128.168C596.898 122.32 600.912 117.963 606.301 115.096C611.69 112.229 617.653 110.796 624.189 110.796C630.61 110.796 636.286 112.229 641.217 115.096C646.148 117.848 649.989 122.033 652.741 127.652C655.493 133.156 656.869 140.093 656.869 148.464V198H643.969V150.012C643.969 141.068 642.02 134.303 638.121 129.716C634.337 125.015 628.89 122.664 621.781 122.664C614.557 122.664 608.824 125.187 604.581 130.232C600.338 135.163 598.217 142.501 598.217 152.248V198H585.317V150.012C585.317 141.068 583.482 134.303 579.813 129.716C576.144 125.015 570.754 122.664 563.645 122.664C556.421 122.664 550.745 125.187 546.617 130.232C542.604 135.163 540.597 142.501 540.597 152.248V198H527.697V112Z" fill="#BE9DF4"/>
<path d="M666.412 74.1602H679.312V198H666.412V74.1602Z" fill="#A0CAFB"/>
<path d="M743.905 198L742.873 182.52C740.465 187.795 736.91 191.923 732.209 194.904C727.508 197.771 721.545 199.204 714.321 199.204C708.129 199.204 702.854 198.229 698.497 196.28C694.14 194.331 690.757 191.579 688.349 188.024C686.056 184.355 684.909 180.055 684.909 175.124C684.909 167.9 687.604 161.995 692.993 157.408C698.382 152.707 706.18 149.84 716.385 148.808L742.873 145.884V139.004C742.873 134.188 741.096 130.347 737.541 127.48C733.986 124.499 729.17 123.008 723.093 123.008C717.13 123.008 712.142 124.384 708.129 127.136C704.23 129.888 701.536 133.844 700.045 139.004L688.349 134.876C690.642 127.308 694.828 121.403 700.905 117.16C707.097 112.917 714.608 110.796 723.437 110.796C733.642 110.796 741.554 113.433 747.173 118.708C752.906 123.868 755.773 130.92 755.773 139.864V198H743.905ZM742.873 156.892L716.213 159.988C710.48 160.676 706.122 162.281 703.141 164.804C700.16 167.212 698.669 170.423 698.669 174.436C698.669 178.449 700.102 181.66 702.969 184.068C705.95 186.476 710.193 187.68 715.697 187.68C722.004 187.68 727.164 186.419 731.177 183.896C735.19 181.373 738.114 177.991 739.949 173.748C741.898 169.391 742.873 164.689 742.873 159.644V156.892Z" fill="#A0CAFB"/>
<path d="M775.264 129.372C777.787 124.097 781.743 119.683 787.132 116.128C792.522 112.573 799.344 110.796 807.6 110.796C815.512 110.796 822.392 112.631 828.24 116.3C834.203 119.969 838.79 125.129 842 131.78C845.326 138.316 846.988 146.056 846.988 155C846.988 163.944 845.326 171.741 842 178.392C838.675 185.043 834.031 190.203 828.068 193.872C822.22 197.427 815.398 199.204 807.6 199.204C799.803 199.204 793.324 197.541 788.164 194.216C783.004 190.891 779.106 186.82 776.468 182.004L775.608 198H763.74V74.1602H776.64V129.544L775.264 129.372ZM833.056 155C833.056 145.139 830.476 137.341 825.316 131.608C820.271 125.76 813.448 122.836 804.848 122.836C799.459 122.836 794.586 124.155 790.228 126.792C785.986 129.315 782.66 132.984 780.252 137.8C777.844 142.501 776.64 148.235 776.64 155C776.64 161.765 777.844 167.556 780.252 172.372C782.66 177.188 785.986 180.857 790.228 183.38C794.586 185.903 799.459 187.164 804.848 187.164C813.448 187.164 820.271 184.297 825.316 178.564C830.476 172.716 833.056 164.861 833.056 155Z" fill="#A0CAFB"/>
<path d="M164.852 1.65515C166.387 0.0753615 168.734 -0.311592 170.687 0.684452C210.134 20.8981 235.987 59.742 240.344 104.074C239.677 104.442 239.015 104.826 238.362 105.228L238.314 105.258L238.266 105.288C230.243 110.322 224.094 117.354 219.787 125.967L219.767 126.007L219.746 126.049C215.483 134.729 213.599 144.514 213.599 155C213.599 165.494 215.485 175.298 219.707 184.044L219.787 184.206L220.197 185.009C220.569 185.726 220.956 186.433 221.355 187.128C198.864 223.603 159.272 247.863 114.276 247.863C65.5982 247.863 22.005 219.913 0.522714 174.928C-0.43782 172.926 -0.0508367 170.511 1.49342 168.927C3.02773 167.347 5.37475 166.959 7.32545 167.958C23.5639 176.272 41.0161 180.496 59.221 180.496C123.501 180.496 175.801 126.674 175.801 60.5194C175.801 41.9945 171.791 24.2035 163.876 7.65711C162.918 5.65224 163.315 3.23665 164.852 1.65515ZM229.008 172.251C228.974 172.14 228.939 172.029 228.906 171.918C228.939 172.029 228.974 172.14 229.008 172.251ZM228.815 171.613C228.777 171.484 228.738 171.355 228.701 171.225C228.738 171.355 228.777 171.484 228.815 171.613ZM228.608 170.89C228.575 170.771 228.542 170.653 228.51 170.534C228.542 170.653 228.575 170.771 228.608 170.89ZM228.435 170.251C228.396 170.104 228.358 169.956 228.321 169.808C228.358 169.956 228.396 170.104 228.435 170.251ZM228.229 169.439C228.207 169.349 228.184 169.258 228.162 169.167C228.184 169.258 228.207 169.349 228.229 169.439ZM228.082 168.828C228.054 168.708 228.027 168.588 228 168.468C228.027 168.588 228.054 168.708 228.082 168.828ZM227.891 167.968C227.88 167.917 227.869 167.867 227.859 167.816C227.869 167.867 227.88 167.917 227.891 167.968ZM227.751 167.297C227.728 167.183 227.706 167.068 227.684 166.954C227.706 167.068 227.728 167.183 227.751 167.297ZM227.606 166.543C227.587 166.443 227.569 166.343 227.551 166.243C227.569 166.343 227.587 166.443 227.606 166.543ZM227.494 165.926C227.471 165.794 227.449 165.661 227.427 165.528C227.449 165.661 227.471 165.794 227.494 165.926ZM227.369 165.176C227.35 165.052 227.331 164.928 227.312 164.804C227.331 164.928 227.35 165.052 227.369 165.176ZM227.253 164.417C227.233 164.278 227.214 164.139 227.195 164C227.214 164.139 227.233 164.278 227.253 164.417ZM227.151 163.682C227.124 163.484 227.099 163.284 227.074 163.084C227.099 163.284 227.124 163.484 227.151 163.682ZM227.061 162.977C227.043 162.828 227.026 162.678 227.009 162.527C227.026 162.678 227.043 162.828 227.061 162.977ZM226.961 162.095C226.952 162.009 226.944 161.923 226.935 161.838C226.944 161.923 226.952 162.009 226.961 162.095ZM226.765 159.855C226.752 159.671 226.741 159.485 226.73 159.3C226.741 159.485 226.752 159.671 226.765 159.855ZM226.712 159.024C226.706 158.917 226.701 158.81 226.696 158.703C226.701 158.81 226.706 158.917 226.712 159.024ZM233.289 128.405C233.317 128.359 233.346 128.314 233.374 128.268C233.346 128.314 233.317 128.359 233.289 128.405ZM233.689 127.77C233.706 127.743 233.723 127.716 233.74 127.689C233.723 127.716 233.706 127.743 233.689 127.77ZM233.983 127.319C234.024 127.256 234.066 127.193 234.108 127.13C234.066 127.193 234.024 127.256 233.983 127.319ZM234.336 126.792C234.379 126.73 234.42 126.667 234.463 126.605C234.42 126.667 234.379 126.73 234.336 126.792ZM235.079 125.739C235.138 125.66 235.195 125.58 235.254 125.501C235.195 125.58 235.138 125.66 235.079 125.739ZM235.418 125.282C235.481 125.199 235.544 125.115 235.608 125.032C235.544 125.115 235.481 125.199 235.418 125.282ZM235.862 124.706C235.905 124.65 235.949 124.595 235.992 124.54C235.949 124.595 235.905 124.65 235.862 124.706ZM236.289 124.171C236.324 124.128 236.36 124.085 236.395 124.042C236.36 124.085 236.324 124.128 236.289 124.171ZM236.655 123.728C236.706 123.667 236.757 123.605 236.809 123.544C236.757 123.605 236.706 123.667 236.655 123.728ZM237.049 123.266C237.119 123.185 237.189 123.105 237.259 123.025C237.189 123.105 237.119 123.185 237.049 123.266ZM237.453 122.806C237.522 122.729 237.591 122.653 237.66 122.577C237.591 122.653 237.522 122.729 237.453 122.806ZM237.927 122.288C237.978 122.233 238.029 122.179 238.08 122.125C238.029 122.179 237.978 122.233 237.927 122.288ZM238.345 121.846C238.404 121.784 238.464 121.724 238.524 121.663C238.464 121.724 238.404 121.784 238.345 121.846ZM238.792 121.39C238.854 121.328 238.917 121.266 238.979 121.205C238.917 121.266 238.854 121.328 238.792 121.39ZM239.221 120.967C239.283 120.906 239.346 120.846 239.408 120.786C239.346 120.846 239.283 120.906 239.221 120.967ZM239.698 120.514C239.775 120.441 239.852 120.37 239.93 120.299C239.852 120.37 239.775 120.441 239.698 120.514ZM240.145 120.102C240.241 120.015 240.338 119.929 240.436 119.843C240.338 119.929 240.241 120.015 240.145 120.102ZM240.577 119.718C240.66 119.646 240.742 119.574 240.824 119.503C240.742 119.574 240.66 119.646 240.577 119.718Z" fill="url(#paint0_linear_26_2)"/>
<defs>
<linearGradient id="paint0_linear_26_2" x1="120.42" y1="0.137695" x2="120.42" y2="247.864" gradientUnits="userSpaceOnUse">
<stop stop-color="#BE9DF4"/>
<stop offset="1" stop-color="#A0CAFB"/>
</linearGradient>
</defs>
</svg>
